<mxfile host="app.diagrams.net" agent="Mozilla/5.0 (Windows NT 10.0; Win64; x64) AppleWebKit/537.36 (KHTML, like Gecko) Chrome/139.0.0.0 Safari/537.36" version="28.1.2">
  <diagram name="Page-1" id="jygTNg17Fiu1OKiT0Wlf">
    <mxGraphModel dx="1042" dy="642" grid="1" gridSize="10" guides="1" tooltips="1" connect="1" arrows="1" fold="1" page="1" pageScale="1" pageWidth="827" pageHeight="1169" math="0" shadow="0" adaptiveColors="auto">
      <root>
        <mxCell id="0" />
        <mxCell id="1" parent="0" />
        <mxCell id="RYJ0spg9mRbjBVHdlc9M-5" value="" style="edgeStyle=orthogonalEdgeStyle;rounded=0;orthogonalLoop=1;jettySize=auto;html=1;" edge="1" parent="1" source="RYJ0spg9mRbjBVHdlc9M-3" target="RYJ0spg9mRbjBVHdlc9M-4">
          <mxGeometry relative="1" as="geometry" />
        </mxCell>
        <mxCell id="RYJ0spg9mRbjBVHdlc9M-3" value="&lt;font face=&quot;Verdana&quot;&gt;STARDUST CYBORGS&lt;/font&gt;" style="rounded=1;whiteSpace=wrap;html=1;" vertex="1" parent="1">
          <mxGeometry x="354" y="30" width="120" height="60" as="geometry" />
        </mxCell>
        <mxCell id="RYJ0spg9mRbjBVHdlc9M-4" value="&lt;b&gt;&lt;font style=&quot;font-size: 17px;&quot;&gt;AFFILIATION WITH ISRO on field&amp;nbsp;&lt;/font&gt;&lt;/b&gt;&lt;div&gt;&lt;b&gt;&lt;font style=&quot;font-size: 17px;&quot;&gt;and off the filed&lt;/font&gt;&lt;/b&gt;&lt;/div&gt;" style="whiteSpace=wrap;html=1;rounded=1;fillColor=#f8cecc;strokeColor=#b85450;gradientColor=#ea6b66;" vertex="1" parent="1">
          <mxGeometry x="259.5" y="120" width="310" height="100" as="geometry" />
        </mxCell>
        <mxCell id="RYJ0spg9mRbjBVHdlc9M-9" value="" style="edgeStyle=orthogonalEdgeStyle;rounded=0;orthogonalLoop=1;jettySize=auto;html=1;" edge="1" parent="1" target="RYJ0spg9mRbjBVHdlc9M-4">
          <mxGeometry relative="1" as="geometry">
            <mxPoint x="415" y="250" as="sourcePoint" />
          </mxGeometry>
        </mxCell>
        <mxCell id="RYJ0spg9mRbjBVHdlc9M-19" value="" style="edgeStyle=orthogonalEdgeStyle;rounded=0;orthogonalLoop=1;jettySize=auto;html=1;" edge="1" parent="1" target="RYJ0spg9mRbjBVHdlc9M-4">
          <mxGeometry relative="1" as="geometry">
            <mxPoint x="414" y="260" as="sourcePoint" />
          </mxGeometry>
        </mxCell>
        <mxCell id="RYJ0spg9mRbjBVHdlc9M-29" value="" style="edgeStyle=orthogonalEdgeStyle;rounded=0;orthogonalLoop=1;jettySize=auto;html=1;" edge="1" parent="1" target="RYJ0spg9mRbjBVHdlc9M-4">
          <mxGeometry relative="1" as="geometry">
            <mxPoint x="414" y="260" as="sourcePoint" />
          </mxGeometry>
        </mxCell>
        <mxCell id="RYJ0spg9mRbjBVHdlc9M-30" value="" style="edgeStyle=orthogonalEdgeStyle;rounded=0;orthogonalLoop=1;jettySize=auto;html=1;" edge="1" parent="1" target="RYJ0spg9mRbjBVHdlc9M-4">
          <mxGeometry relative="1" as="geometry">
            <mxPoint x="414" y="260" as="sourcePoint" />
          </mxGeometry>
        </mxCell>
        <mxCell id="RYJ0spg9mRbjBVHdlc9M-31" value="" style="edgeStyle=orthogonalEdgeStyle;rounded=0;orthogonalLoop=1;jettySize=auto;html=1;" edge="1" parent="1" target="RYJ0spg9mRbjBVHdlc9M-4">
          <mxGeometry relative="1" as="geometry">
            <mxPoint x="414" y="260" as="sourcePoint" />
          </mxGeometry>
        </mxCell>
        <mxCell id="RYJ0spg9mRbjBVHdlc9M-32" value="" style="edgeStyle=orthogonalEdgeStyle;rounded=0;orthogonalLoop=1;jettySize=auto;html=1;" edge="1" parent="1" target="RYJ0spg9mRbjBVHdlc9M-4">
          <mxGeometry relative="1" as="geometry">
            <mxPoint x="414" y="260" as="sourcePoint" />
          </mxGeometry>
        </mxCell>
        <mxCell id="RYJ0spg9mRbjBVHdlc9M-33" value="" style="edgeStyle=orthogonalEdgeStyle;rounded=0;orthogonalLoop=1;jettySize=auto;html=1;" edge="1" parent="1" target="RYJ0spg9mRbjBVHdlc9M-4">
          <mxGeometry relative="1" as="geometry">
            <mxPoint x="414" y="260" as="sourcePoint" />
          </mxGeometry>
        </mxCell>
        <mxCell id="RYJ0spg9mRbjBVHdlc9M-35" value="" style="edgeStyle=orthogonalEdgeStyle;rounded=0;orthogonalLoop=1;jettySize=auto;html=1;" edge="1" parent="1" source="RYJ0spg9mRbjBVHdlc9M-34" target="RYJ0spg9mRbjBVHdlc9M-4">
          <mxGeometry relative="1" as="geometry" />
        </mxCell>
        <mxCell id="RYJ0spg9mRbjBVHdlc9M-36" value="" style="edgeStyle=orthogonalEdgeStyle;rounded=0;orthogonalLoop=1;jettySize=auto;html=1;" edge="1" parent="1" source="RYJ0spg9mRbjBVHdlc9M-34" target="RYJ0spg9mRbjBVHdlc9M-4">
          <mxGeometry relative="1" as="geometry" />
        </mxCell>
        <mxCell id="RYJ0spg9mRbjBVHdlc9M-38" value="" style="edgeStyle=orthogonalEdgeStyle;rounded=0;orthogonalLoop=1;jettySize=auto;html=1;" edge="1" parent="1" source="RYJ0spg9mRbjBVHdlc9M-34" target="RYJ0spg9mRbjBVHdlc9M-37">
          <mxGeometry relative="1" as="geometry" />
        </mxCell>
        <mxCell id="RYJ0spg9mRbjBVHdlc9M-40" value="" style="edgeStyle=orthogonalEdgeStyle;rounded=0;orthogonalLoop=1;jettySize=auto;html=1;" edge="1" parent="1" source="RYJ0spg9mRbjBVHdlc9M-34" target="RYJ0spg9mRbjBVHdlc9M-39">
          <mxGeometry relative="1" as="geometry" />
        </mxCell>
        <mxCell id="RYJ0spg9mRbjBVHdlc9M-44" value="" style="edgeStyle=orthogonalEdgeStyle;rounded=0;orthogonalLoop=1;jettySize=auto;html=1;" edge="1" parent="1" source="RYJ0spg9mRbjBVHdlc9M-34" target="RYJ0spg9mRbjBVHdlc9M-43">
          <mxGeometry relative="1" as="geometry" />
        </mxCell>
        <mxCell id="RYJ0spg9mRbjBVHdlc9M-34" value="" style="html=1;shadow=0;dashed=0;align=center;verticalAlign=middle;shape=mxgraph.arrows2.arrow;dy=0.6;dx=40;direction=south;notch=0;" vertex="1" parent="1">
          <mxGeometry x="379" y="260" width="71" height="80" as="geometry" />
        </mxCell>
        <mxCell id="RYJ0spg9mRbjBVHdlc9M-37" value="Home" style="whiteSpace=wrap;html=1;shadow=0;dashed=0;fillColor=#d5e8d4;strokeColor=#82b366;fontStyle=1;fontSize=16;gradientColor=#97d077;" vertex="1" parent="1">
          <mxGeometry x="203.5" y="270" width="120" height="60" as="geometry" />
        </mxCell>
        <mxCell id="RYJ0spg9mRbjBVHdlc9M-39" value="About Us" style="whiteSpace=wrap;html=1;shadow=0;dashed=0;fillColor=#f8cecc;strokeColor=#b85450;fontStyle=1;fontSize=15;gradientColor=#ea6b66;" vertex="1" parent="1">
          <mxGeometry x="505.5" y="270" width="120" height="60" as="geometry" />
        </mxCell>
        <mxCell id="RYJ0spg9mRbjBVHdlc9M-46" value="" style="edgeStyle=orthogonalEdgeStyle;rounded=0;orthogonalLoop=1;jettySize=auto;html=1;" edge="1" parent="1" source="RYJ0spg9mRbjBVHdlc9M-43" target="RYJ0spg9mRbjBVHdlc9M-45">
          <mxGeometry relative="1" as="geometry" />
        </mxCell>
        <mxCell id="RYJ0spg9mRbjBVHdlc9M-48" value="" style="edgeStyle=orthogonalEdgeStyle;rounded=0;orthogonalLoop=1;jettySize=auto;html=1;" edge="1" parent="1" source="RYJ0spg9mRbjBVHdlc9M-43" target="RYJ0spg9mRbjBVHdlc9M-47">
          <mxGeometry relative="1" as="geometry" />
        </mxCell>
        <mxCell id="RYJ0spg9mRbjBVHdlc9M-52" value="" style="edgeStyle=orthogonalEdgeStyle;rounded=0;orthogonalLoop=1;jettySize=auto;html=1;" edge="1" parent="1" source="RYJ0spg9mRbjBVHdlc9M-43" target="RYJ0spg9mRbjBVHdlc9M-51">
          <mxGeometry relative="1" as="geometry" />
        </mxCell>
        <mxCell id="RYJ0spg9mRbjBVHdlc9M-43" value="" style="html=1;shadow=0;dashed=0;align=center;verticalAlign=middle;shape=mxgraph.arrows2.arrow;dy=0.6;dx=40;direction=south;notch=0;" vertex="1" parent="1">
          <mxGeometry x="379" y="420" width="71" height="80" as="geometry" />
        </mxCell>
        <mxCell id="RYJ0spg9mRbjBVHdlc9M-45" value="Missions" style="whiteSpace=wrap;html=1;shadow=0;dashed=0;fontSize=15;fillColor=#f5f5f5;gradientColor=#b3b3b3;strokeColor=#666666;" vertex="1" parent="1">
          <mxGeometry x="203.5" y="430" width="120" height="60" as="geometry" />
        </mxCell>
        <mxCell id="RYJ0spg9mRbjBVHdlc9M-47" value="Contact Us" style="whiteSpace=wrap;html=1;shadow=0;dashed=0;fontStyle=1;fontSize=15;fillColor=#fff2cc;strokeColor=#d6b656;gradientColor=#ffd966;" vertex="1" parent="1">
          <mxGeometry x="505.5" y="430" width="120" height="60" as="geometry" />
        </mxCell>
        <mxCell id="RYJ0spg9mRbjBVHdlc9M-51" value="ISRO" style="whiteSpace=wrap;html=1;shadow=0;dashed=0;fillColor=#e6d0de;gradientColor=#d5739d;strokeColor=#996185;fontFamily=Verdana;" vertex="1" parent="1">
          <mxGeometry x="354.5" y="590" width="120" height="60" as="geometry" />
        </mxCell>
      </root>
    </mxGraphModel>
  </diagram>
</mxfile>
